{"title":"Pan.2015.BRRip.x264-CM8","uid":12939956,"size":1564400633,"categoryP":"video","categoryS":"movies","magnet":"?xt=urn:btih:0d8d09f5d5c47246812fb6a63b3723c0985ca351&amp;dn=Pan.2015.BRRip.x264-CM8&amp;tr=udp%3A%2F%2Ftracker.leechers-paradise.org%3A6969&amp;tr=udp%3A%2F%2Fzer0day.ch%3A1337&amp;tr=udp%3A%2F%2Fopen.demonii.com%3A1337&amp;tr=udp%3A%2F%2Ftracker.coppersurfer.tk%3A6969&amp;tr=udp%3A%2F%2Fexodus.desync.com%3A6969","seeders":0,"leechers":0,"uploader":"TvTeam","files":5,"time":1449620790,"description":"------------------------------------------------------------------------\r\n\r  https://www.torrenting.com\r\n\r\nSign up is OPEN - for time being. Come and have fun.\r\n\r\n------------------------------------------------------------------------[center][img]http://i.imgur.com/kwizGAD.jpg[/img]\n\nPan.2015.BRRip.x264-CM8\n\n[url]http://www.imdb.com/title/tt3332064/[/url]\n\nSource: 720p.BluRay.x264-SPARKS \n\n[url]http://screenshotcomparison.com/comparison/153527[/url]\n\nSubtitles: full english .srt included\n\nGeneral\nComplete name                            : Pan.2015.BRRip.x264-CM8.mp4\nFormat                                   : MPEG-4\nFormat profile                           : Base Media\nCodec ID                                 : isom\nFile size                                : 1.43 GiB\nDuration                                 : 1h 51mn\nOverall bit rate mode                    : Variable\nOverall bit rate                         : 1 833 Kbps\nEncoded date                             : UTC 2015-12-08 22:30:44\nTagged date                              : UTC 2015-12-08 22:30:44\n\nVideo\nID                                       : 1\nFormat                                   : AVC\nFormat/Info                              : Advanced Video Codec\nFormat profile                           :   \nFormat settings, CABAC                   : Yes\nFormat settings, ReFrames                : 3 frames\nCodec ID                                 : avc1\nCodec ID/Info                            : Advanced Video Coding\nDuration                                 : 1h 51mn\nBit rate mode                            : Variable\nBit rate                                 : 1 476 Kbps\nWidth                                    : 720 pixels\nHeight                                   : 304 pixels\nDisplay aspect ratio                     : 2.35:1\nFrame rate mode                          : Constant\nFrame rate                               : 23.976 fps\nColor space                              : YUV\nChroma subsampling                       : 4:2:0\nBit depth                                : 8 bits\nScan type                                : Progressive\nBits/(Pixel*Frame)                       : 0.281\nStream size                              : 1.15 GiB (81%)\nWriting library                          : x264 core 148 r2638 7599210\n\nAudio\nID                                       : 2\nFormat                                   : AAC\nFormat/Info                              : Advanced Audio Codec\nFormat profile                           : LC\nCodec ID                                 : 40\nDuration                                 : 1h 51mn\nBit rate mode                            : Variable\nBit rate                                 : 353 Kbps\nMaximum bit rate                         : 402 Kbps\nChannel(s)                               : 6 channels\nChannel positions                        : Front: L C R, Side: L R, LFE\nSampling rate                            : 48.0 KHz\nCompression mode                         : Lossy\nStream size                              : 282 MiB (19%)\nLanguage                                 : English\nEncoded date                             : UTC 2015-12-08 21:07:23\nTagged date                              : UTC 2015-12-08 22:38:59\n\n[img]http://i.imgur.com/f1UhTYt.jpg[/img]\n[img]http://i.imgur.com/N6pfIkX.jpg[/img]\n[img]http://i.imgur.com/ujaHm9D.jpg[/img]\n[img]http://i.imgur.com/LL5TdP9.jpg[/img]\n[img]http://i.imgur.com/Y2YbUMy.jpg[/img]\n[img]http://i.imgur.com/ymI5lno.jpg[/img][/center]","torrent":{"xt":"urn:btih:0d8d09f5d5c47246812fb6a63b3723c0985ca351","amp;dn":"Pan.2015.BRRip.x264-CM8","amp;tr":["udp%3A%2F%2Ftracker.leechers-paradise.org%3A6969","udp%3A%2F%2Fzer0day.ch%3A1337","udp%3A%2F%2Fopen.demonii.com%3A1337","udp%3A%2F%2Ftracker.coppersurfer.tk%3A6969","udp%3A%2F%2Fexodus.desync.com%3A6969"],"infoHash":"0d8d09f5d5c47246812fb6a63b3723c0985ca351","infoHashBuffer":{"type":"Buffer","data":[13,141,9,245,213,196,114,70,129,47,182,166,59,55,35,192,152,92,163,81]},"announce":[],"urlList":[]}}